<svg viewBox="0 0 1200 630" xmlns="http://www.w3.org/2000/svg" font-family="system-ui, sans-serif">
  <rect width="1200" height="630" fill="#1E40AF"/>
  <!-- textura de puntos -->
  <g fill="#ffffff" opacity="0.08">
    <circle cx="980" cy="120" r="4"/><circle cx="1080" cy="220" r="4"/><circle cx="900" cy="260" r="4"/>
    <circle cx="1040" cy="400" r="4"/><circle cx="960" cy="500" r="4"/><circle cx="1120" cy="540" r="4"/>
    <circle cx="860" cy="430" r="4"/>
  </g>
  <g stroke="#ffffff" stroke-width="2" opacity="0.12">
    <line x1="980" y1="120" x2="1080" y2="220"/><line x1="900" y1="260" x2="1080" y2="220"/>
    <line x1="1040" y1="400" x2="960" y2="500"/><line x1="860" y1="430" x2="1040" y2="400"/>
  </g>
  <!-- ícono J -->
  <g transform="translate(96,205)">
    <rect width="220" height="220" rx="50" fill="#ffffff" opacity="0.08"/>
    <g fill="none" stroke="#ffffff" stroke-linecap="round" stroke-linejoin="round">
      <path d="M92 70 L162 70" stroke-width="24"/>
      <path d="M134 70 L134 134 Q134 162 104 162 Q74 162 72 134" stroke-width="28"/>
    </g>
    <circle cx="162" cy="70" r="15" fill="#F59E0B"/>
  </g>
  <!-- texto -->
  <text x="360" y="270" font-size="92" font-weight="800" fill="#ffffff" letter-spacing="2">JETRO</text>
  <text x="362" y="340" font-size="34" font-weight="600" fill="#FBBF24">Discipulado para iglesias que multiplican</text>
  <text x="362" y="392" font-size="26" fill="#C7D2FE">Células · jerarquía · zonas · reportes · app móvil</text>
</svg>
